# xmcd CD database file
#
# Track frame offsets:
#	150
#	16150
#	33887
#	50420
#	65345
#	82887
#	99660
#	119815
#	140750
#	159075
#	179737
#	197912
#	213290
#	234015
#	251207
#	276722
#	304020
#	321882
#
# Disc length: 4503 seconds
#
# Revision: 2
# Processed by: cddbd v1.5.2PL0 Copyright (c) Steve Scherf et al.
# Submitted via: CDex 1.70beta3
#
DISCID=02119512
DTITLE=Various Artist - ベストヒット８０’ｓ Disc 2
DYEAR=2005
DGENRE=Rock
TTITLE0=ウーマン/ジョン・レノン
TTITLE1=すべてをあなたに/ホイットニー・ヒューストン
TTITLE2=素直になれなくて/シカゴ
TTITLE3=オープン・アームズ/ジャーニー
TTITLE4=ニューヨーク・シティ・セレナーデ/クリストファー・クロス
TTITLE5=エボニー・アンド・アイボリー/ポール・マッカトニー＆スティーヴィー・ワンダ
TTITLE6=愛はとまらない/スターシップ
TTITLE7=愛に抱かれた夜/カッティング・クルー
TTITLE8=ヘヴン/ブライアン・アダムス
TTITLE9=アイ・ニード・ユー/モーリス・ホワイト
TTITLE10=変わらぬ想い/ジョージ・ベンソン
TTITLE11=見つめて欲しい/フィル・コリンズ
TTITLE12=カサブランカ/バーティー・ヒギンズ
TTITLE13=愛と青春の旅だち/ジョー・コッカー＆ジェニファー・ウォーンズ
TTITLE14=トゥルー/スパンダー・バレエ
TTITLE15=I.G.Y./ドナルド・フェイゲン
TTITLE16=ジャスト・ザ・トゥー・オブ・アス/グロ－ヴァ－・ワシントンＪＲ
TTITLE17=愛のセレブレイション/ピーボ・ブライソン＆ロバータ・フラック
EXTD=YEAR: 2005
EXTT0=
EXTT1=
EXTT2=
EXTT3=
EXTT4=
EXTT5=
EXTT6=
EXTT7=
EXTT8=
EXTT9=
EXTT10=
EXTT11=
EXTT12=
EXTT13=
EXTT14=
EXTT15=
EXTT16=
EXTT17=
PLAYORDER=
